<?xml version="1.0" encoding="utf-8"?>
<!-- Generator: Adobe Illustrator 16.0.0, SVG Export Plug-In . SVG Version: 6.00 Build 0)  -->
<!DOCTYPE svg PUBLIC "-//W3C//DTD SVG 1.1//EN" "http://www.w3.org/Graphics/SVG/1.1/DTD/svg11.dtd">
<svg version="1.1" id="Layer_1" xmlns="http://www.w3.org/2000/svg" xmlns:xlink="http://www.w3.org/1999/xlink" x="0px" y="0px"
	 width="269px" height="269px" viewBox="0 0 269 269" enable-background="new 0 0 269 269" xml:space="preserve">
<path fill-rule="evenodd" clip-rule="evenodd" fill="#FFFFFF" d="M0,134.5C0,208.779,60.22,269,134.5,269
	c74.279,0,134.5-60.221,134.5-134.5C269,60.22,208.779,0,134.5,0C60.22,0,0,60.22,0,134.5z M127,54h16c1.1,0,2,0.9,2,2v158
	c0,1.1-0.9,2-2,2h-16c-1.1,0-2-0.9-2-2V56C125,54.9,125.9,54,127,54z"/>
</svg>
