<?xml version="1.0" encoding="utf-8"?>
<!-- Generator: Adobe Illustrator 16.0.0, SVG Export Plug-In . SVG Version: 6.00 Build 0)  -->
<!DOCTYPE svg PUBLIC "-//W3C//DTD SVG 1.1//EN" "http://www.w3.org/Graphics/SVG/1.1/DTD/svg11.dtd">
<svg version="1.1" id="Layer_1" xmlns="http://www.w3.org/2000/svg" xmlns:xlink="http://www.w3.org/1999/xlink" x="0px" y="0px"
	 width="567.649px" height="79.001px" viewBox="0 0 567.649 79.001" enable-background="new 0 0 567.649 79.001"
	 xml:space="preserve">
<g>
	<polygon fill-rule="evenodd" clip-rule="evenodd" fill="#FFFFFF" points="34.399,41.343 56.389,41.343 58.598,34.661 
		36.608,34.661 41.396,19.827 63.858,19.827 66.176,12.724 24.876,12.724 8.461,63.492 27.296,63.492 	"/>
	<path fill-rule="evenodd" clip-rule="evenodd" fill="#FFFFFF" d="M119.153,20.877c0-1.472-0.315-2.736-0.894-3.735
		c-0.632-1.051-1.632-1.894-3.001-2.525c-1.366-0.683-3.154-1.155-5.261-1.472c-2.155-0.265-4.786-0.421-7.838-0.421H71.594
		L55.232,63.492h18.781l6.209-19.205h9.89c4.052,0,7.576-0.258,10.628-0.787c2.997-0.529,5.576-1.475,7.786-2.737
		c2.157-1.261,3.997-2.944,5.472-5.102c1.525-2.104,2.735-4.734,3.786-7.892C118.732,25.033,119.153,22.719,119.153,20.877z
		 M94.32,35.028c-1.734,1.369-3.524,2.053-5.312,2.053h-6.471l5.577-17.254H94.9c2.947,0,4.419,1.366,4.419,3.997
		c0,1.158-0.262,2.42-0.684,3.945C97.478,31.188,96.006,33.61,94.32,35.028z"/>
	<polygon fill-rule="evenodd" clip-rule="evenodd" fill="#FFFFFF" points="122.205,12.724 123.361,63.492 143.144,63.492 
		175.394,12.724 166.292,12.724 141.985,51.443 141.197,51.443 140.829,12.724 	"/>
	<polygon fill-rule="evenodd" clip-rule="evenodd" fill="#FFFFFF" points="175.553,19.827 189.81,19.827 175.709,63.492 
		194.544,63.492 208.696,19.827 222.902,19.827 225.217,12.724 177.867,12.724 	"/>
	<path fill-rule="evenodd" clip-rule="evenodd" fill="#FFFFFF" d="M238.21,55.498c-1.104-0.945-1.632-2.318-1.632-4.316
		c0-0.842,0.105-1.787,0.316-2.898c0.159-1.047,0.476-2.26,0.894-3.523l4.367-13.202c0.843-2.524,1.737-4.629,2.685-6.26
		c0.945-1.631,1.944-2.84,2.998-3.683c1.053-0.895,2.158-1.473,3.368-1.788c1.21-0.265,2.524-0.421,3.997-0.421
		c2.104,0,3.734,0.367,4.84,1.104c1.104,0.737,1.685,2.209,1.685,4.261c0,0.947-0.159,2.052-0.37,3.208
		c-0.21,1.21-0.578,2.579-1.104,4.156l-4.156,12.731c-0.684,2.158-1.472,4.002-2.314,5.523c-0.894,1.531-1.894,2.789-2.998,3.74
		c-1.053,0.895-2.263,1.629-3.578,2.045c-1.315,0.422-2.682,0.637-4.208,0.637C240.895,56.812,239.263,56.39,238.21,55.498z
		 M245.785,63.964c4.262,0,8.051-0.473,11.365-1.471c3.313-1.002,6.154-2.373,8.628-4.16c2.42-1.789,4.473-3.947,6.102-6.52
		c1.631-2.523,2.946-5.369,3.945-8.523l3.368-10.366c0.526-1.577,0.948-3.052,1.21-4.473c0.265-1.418,0.37-2.733,0.37-3.997
		c0-1.947-0.316-3.683-1.054-5.155c-0.683-1.526-1.736-2.787-3.208-3.841c-1.475-1.053-3.368-1.842-5.631-2.368
		c-2.314-0.524-5.103-0.789-8.364-0.789h-9.839c-4.367,0-8.153,0.473-11.416,1.421c-3.263,0.947-6.155,2.314-8.575,4.104
		c-2.42,1.788-4.472,3.997-6.104,6.522c-1.683,2.525-2.998,5.366-4.051,8.575l-3.314,10.366c-1.104,3.154-1.631,5.943-1.631,8.363
		c0,1.891,0.367,3.627,1.054,5.158c0.683,1.578,1.733,2.836,3.208,3.895c1.472,1.049,3.313,1.84,5.683,2.363
		c2.314,0.58,5.102,0.895,8.364,0.895H245.785z"/>
	<path fill-rule="evenodd" clip-rule="evenodd" fill="#FFFFFF" d="M301.344,55.498c-1.109-0.945-1.633-2.318-1.633-4.316
		c0-0.842,0.104-1.787,0.268-2.898c0.205-1.047,0.523-2.26,0.945-3.523l4.367-13.202c0.842-2.524,1.736-4.629,2.682-6.26
		s1.941-2.84,3-3.683c1.049-0.895,2.158-1.473,3.365-1.788c1.207-0.265,2.523-0.421,3.998-0.421c2.1,0,3.734,0.367,4.838,1.104
		c1.105,0.737,1.686,2.209,1.686,4.261c0,0.947-0.158,2.052-0.369,3.208c-0.211,1.21-0.58,2.579-1.105,4.156l-4.156,12.731
		c-0.684,2.158-1.475,4.002-2.367,5.523c-0.844,1.531-1.84,2.789-2.945,3.74c-1.053,0.895-2.266,1.629-3.58,2.045
		c-1.316,0.422-2.682,0.637-4.203,0.637C304.027,56.812,302.393,56.39,301.344,55.498z M308.918,63.964
		c4.264,0,8.051-0.473,11.365-1.471c3.312-1.002,6.154-2.373,8.631-4.16c2.414-1.789,4.469-3.947,6.098-6.52
		c1.629-2.523,2.943-5.369,3.945-8.523l3.365-10.366c0.529-1.577,0.895-3.052,1.213-4.473c0.268-1.418,0.371-2.733,0.371-3.997
		c0-1.947-0.371-3.683-1.055-5.155c-0.684-1.526-1.736-2.787-3.211-3.841c-1.469-1.053-3.365-1.842-5.631-2.368
		c-2.311-0.524-5.096-0.789-8.363-0.789h-9.834c-4.367,0-8.158,0.473-11.416,1.421c-3.268,0.947-6.154,2.314-8.58,4.104
		c-2.414,1.788-4.471,3.997-6.102,6.522c-1.682,2.525-2.997,5.366-4.051,8.575l-3.313,10.366c-1.104,3.154-1.631,5.943-1.631,8.363
		c0,1.891,0.315,3.627,1.053,5.158c0.684,1.578,1.734,2.836,3.209,3.895c1.472,1.049,3.313,1.84,5.683,2.363
		c2.316,0.58,5.102,0.895,8.363,0.895H308.918z"/>
	<polygon fill-rule="evenodd" clip-rule="evenodd" fill="#FFFFFF" points="354.428,12.724 338.012,63.492 379.258,63.492 
		381.576,56.39 359.107,56.39 373.262,12.724 	"/>
	<path fill-rule="evenodd" clip-rule="evenodd" fill="#FFFFFF" d="M443.705,12.724h-22.57c-3.523,0-6.678,0.21-9.525,0.683
		c-2.836,0.476-5.311,1.264-7.469,2.314c-2.158,1.054-3.947,2.475-5.416,4.157c-1.475,1.685-2.631,3.789-3.473,6.259l-0.318,1.158
		c-0.678,2.104-0.996,3.998-0.996,5.629c0,1.104,0.262,2.158,0.842,3.105c0.576,0.945,1.576,1.788,2.893,2.472
		c1.371,0.683,3.211,1.264,5.471,1.631c2.211,0.367,5,0.578,8.365,0.578c1.84,0,3.154,0.21,3.996,0.687
		c0.844,0.473,1.266,1.26,1.266,2.467c0,0.529-0.053,1.162-0.211,1.844c-0.109,0.736-0.314,1.527-0.582,2.42
		c-0.523,1.578-1.15,2.893-1.941,3.947c-0.74,0.996-1.582,1.838-2.578,2.527c-1.055,0.678-2.211,1.1-3.525,1.367
		c-1.314,0.262-2.789,0.42-4.471,0.42h-16.994l-2.312,7.102h22.514c3.791,0,7.209-0.211,10.26-0.633
		c3.053-0.416,5.734-1.156,8.102-2.26c2.262-1.105,4.266-2.58,5.838-4.424c1.633-1.84,2.896-4.203,3.842-7.049l0.576-1.736
		c0.215-0.73,0.422-1.572,0.637-2.467c0.205-0.895,0.314-1.736,0.314-2.477c0-1.264-0.264-2.419-0.736-3.367
		c-0.473-1-1.365-1.84-2.578-2.577c-1.264-0.737-2.949-1.264-5.107-1.631s-4.891-0.578-8.256-0.578
		c-2.102,0-3.684-0.265-4.732-0.843c-1.006-0.578-1.479-1.315-1.479-2.209c0-0.526,0.057-1.158,0.164-1.894
		c0.102-0.737,0.309-1.525,0.627-2.368c0.42-1.315,0.996-2.42,1.787-3.313c0.74-0.948,1.582-1.685,2.527-2.209
		c0.945-0.58,2-0.999,3.104-1.21c1.105-0.265,2.158-0.421,3.264-0.421h16.568L443.705,12.724z"/>
	<polygon fill-rule="evenodd" clip-rule="evenodd" fill="#FFFFFF" points="438.393,62.916 448.232,62.916 450.863,54.654 
		441.023,54.654 	"/>
	<path fill-rule="evenodd" clip-rule="evenodd" fill="#FFFFFF" d="M476.695,60.228h-6.844c-1.367,0-2.312-0.262-2.943-0.785
		c-0.582-0.58-0.895-1.316-0.895-2.318c0-0.363,0.051-0.842,0.16-1.314c0.102-0.473,0.205-0.951,0.363-1.475l2.473-7.732
		c0.369-1.156,0.791-2.158,1.211-2.943c0.473-0.74,0.945-1.367,1.471-1.844c0.529-0.473,1.16-0.787,1.844-0.944
		c0.633-0.211,1.424-0.314,2.316-0.314h7.312l1.207-3.792h-10.676c-2.312,0-4.266,0.21-5.951,0.736
		c-1.623,0.527-3.045,1.265-4.254,2.209c-1.211,1-2.213,2.159-3,3.526c-0.842,1.367-1.531,2.893-2.055,4.629l-1.629,5.051
		c-0.312,0.895-0.529,1.787-0.684,2.58c-0.215,0.842-0.268,1.576-0.268,2.311c0,0.945,0.16,1.84,0.473,2.58
		c0.371,0.791,0.895,1.418,1.686,1.998c0.791,0.529,1.789,0.951,3,1.264c1.213,0.262,2.734,0.365,4.521,0.365h9.896L476.695,60.228z
		"/>
	<path fill-rule="evenodd" clip-rule="evenodd" fill="#FFFFFF" d="M491.789,59.755c-0.574-0.529-0.842-1.258-0.842-2.316
		c0-0.473,0.057-0.996,0.164-1.572c0.104-0.586,0.258-1.213,0.473-1.9l2.363-7.102c0.422-1.365,0.895-2.527,1.418-3.365
		c0.479-0.842,1.008-1.525,1.582-1.998c0.576-0.473,1.156-0.739,1.789-0.944c0.631-0.164,1.365-0.215,2.105-0.215
		c1.156,0,1.998,0.215,2.631,0.579c0.576,0.422,0.842,1.156,0.842,2.316c0,0.525-0.051,1.049-0.158,1.686
		c-0.107,0.678-0.314,1.418-0.58,2.26l-2.209,6.84c-0.371,1.156-0.793,2.152-1.266,2.943c-0.473,0.842-0.996,1.531-1.576,2.004
		c-0.58,0.523-1.207,0.895-1.896,1.15c-0.734,0.217-1.469,0.318-2.26,0.318C493.264,60.439,492.369,60.228,491.789,59.755z
		 M495.844,64.283c2.316,0,4.311-0.268,6.047-0.791c1.736-0.525,3.318-1.264,4.635-2.209c1.264-0.998,2.363-2.158,3.256-3.525
		c0.844-1.367,1.531-2.898,2.107-4.578l1.787-5.574c0.268-0.842,0.473-1.633,0.633-2.424c0.107-0.736,0.211-1.418,0.211-2.158
		c0-0.998-0.211-1.943-0.576-2.733c-0.369-0.789-0.951-1.472-1.736-2.05c-0.74-0.58-1.736-0.999-3-1.264
		c-1.213-0.315-2.682-0.473-4.42-0.473h-5.26c-2.318,0-4.367,0.263-6.104,0.789s-3.264,1.21-4.527,2.209
		c-1.314,0.949-2.42,2.104-3.262,3.469c-0.895,1.367-1.629,2.949-2.158,4.635l-1.787,5.574c-0.576,1.68-0.844,3.211-0.844,4.527
		c0,0.996,0.16,1.941,0.529,2.732c0.365,0.844,0.945,1.525,1.736,2.107c0.787,0.523,1.789,0.996,2.996,1.264
		c1.264,0.312,2.738,0.473,4.475,0.473H495.844z"/>
	<path fill-rule="evenodd" clip-rule="evenodd" fill="#FFFFFF" d="M530.354,40.557h2.846c0.309,0,0.678,0.051,0.996,0.104
		c0.32,0,0.576,0.102,0.793,0.211c0.256,0.106,0.42,0.312,0.574,0.526c0.104,0.258,0.211,0.576,0.211,0.998
		c-0.051,0.318-0.107,0.627-0.158,1.047c-0.104,0.422-0.154,0.844-0.371,1.373l-6.207,19.199h10.051l7.572-23.458h2.846
		c0.371,0,0.627,0.051,0.945,0.104c0.32,0,0.576,0.102,0.844,0.211c0.211,0.106,0.369,0.312,0.523,0.526
		c0.16,0.258,0.211,0.576,0.211,0.998c-0.051,0.369-0.107,0.684-0.16,1.104c-0.051,0.365-0.152,0.787-0.312,1.316l-6.211,19.199
		h10.049l5.949-18.414c0.262-0.842,0.473-1.629,0.627-2.311c0.107-0.684,0.164-1.316,0.164-1.893c0-0.897-0.164-1.632-0.586-2.264
		c-0.363-0.578-0.893-1.104-1.68-1.421c-0.734-0.367-1.68-0.632-2.842-0.737c-1.16-0.156-2.527-0.21-4.047-0.21h-31.465
		l-8.732,27.25h10.049L530.354,40.557z"/>
	
		<rect x="0.36" y="0.36" fill-rule="evenodd" clip-rule="evenodd" fill="none" stroke="#FFFFFF" stroke-width="0.72" stroke-linecap="square" stroke-miterlimit="10" width="566.929" height="78.281"/>
</g>
</svg>
